<?xml version="1.0" encoding="utf-8" ?><svg xmlns="http://www.w3.org/2000/svg" xmlns:xlink="http://www.w3.org/1999/xlink" width="1536" height="768" viewBox="0 0 1536 768"><path fill="#F0FDF4" d="M612.476 417.407C597.14 455.453 557.104 477.409 516.778 469.887C476.453 462.366 447.024 427.454 446.435 386.437C445.846 345.42 474.26 309.677 514.353 301.001C554.446 292.324 595.096 313.121 611.518 350.712C620.78 371.913 621.125 395.948 612.476 417.407ZM504.469 419.27C508.056 422.546 513.748 424.876 518.238 426.573C541.045 432.181 566.033 425.247 572.912 400.143C576.724 386.101 574.83 371.121 567.642 358.47C556.76 343.667 542.334 340.631 525.131 342.223C521.032 343.089 518.227 343.594 514.284 345.173C511.514 346.328 509.444 347.252 506.933 348.911C487.635 361.068 485.838 393.358 497.342 411.38C499.285 414.371 501.69 417.034 504.469 419.27Z"/><defs><linearGradient id="gradient_0" gradientUnits="userSpaceOnUse" x1="521.11261" y1="425.36441" x2="541.54523" y2="348.616"><stop offset="0" stop-color="#171717" stop-opacity="0.58431375"/><stop offset="1" stop-color="#171717" stop-opacity="0.8509804"/></linearGradient></defs><path fill="url(#gradient_0)" d="M525.131 342.223C526.331 354.704 541.983 349.341 549.43 350.827C556.916 352.321 558.713 357.98 567.642 358.47C574.83 371.121 576.724 386.101 572.912 400.143C566.033 425.247 541.045 432.181 518.238 426.573C519.783 426.109 522.095 425.868 522.475 424.153C521.52 422.794 518.605 422.944 517.727 422.479C516.101 421.463 515.856 418.945 514.501 417.747C513.14 416.542 510.364 417.23 510.42 414.761C510.436 414.025 510.364 413.165 510.018 412.493C509.844 412.156 509.766 411.852 509.688 411.475C507.554 412.265 505.831 411.905 504.627 409.778L504.257 409.142L503.689 407.782C500.532 407.382 500.813 410.058 501.35 410.667C505.348 415.197 504.26 413.001 504.469 419.27C501.69 417.034 499.285 414.371 497.342 411.38C485.838 393.358 487.635 361.068 506.933 348.911C506.588 348.889 520.919 349.259 519.398 349.68C521.499 346.357 517.355 346.179 514.284 345.173C518.227 343.594 521.032 343.089 525.131 342.223ZM563.691 410.122C567.916 408.869 569.677 405.152 566.765 402.077C560.834 402.947 562.232 404.137 563.691 410.122ZM560.693 417.378C561.542 416.901 562.059 415.995 562.038 415.021C562.016 414.047 561.461 413.165 560.592 412.724C559.723 412.284 558.683 412.359 557.885 412.918C556.733 413.725 556.417 415.294 557.166 416.484C557.916 417.674 559.467 418.068 560.693 417.378ZM545.739 419.476C546.271 415.846 543.701 417.042 540.658 417.111C540.85 420.855 542.438 419.73 545.739 419.476Z"/><path fill="#181818" fill-opacity="0.56862748" d="M566.765 402.077C569.677 405.152 567.916 408.869 563.691 410.122C562.232 404.137 560.834 402.947 566.765 402.077Z"/><path fill="#181818" fill-opacity="0.55686277" d="M557.885 412.918C558.683 412.359 559.723 412.284 560.592 412.724C561.461 413.165 562.016 414.047 562.038 415.021C562.059 415.995 561.542 416.901 560.693 417.378C559.467 418.068 557.916 417.674 557.166 416.484C556.417 415.294 556.733 413.725 557.885 412.918Z"/><path fill="#181818" fill-opacity="0.54901963" d="M540.658 417.111C543.701 417.042 546.271 415.846 545.739 419.476C542.438 419.73 540.85 420.855 540.658 417.111Z"/><path fill="#181818" fill-opacity="0.84705883" d="M525.131 342.223C542.334 340.631 556.76 343.667 567.642 358.47C558.713 357.98 556.916 352.321 549.43 350.827C541.983 349.341 526.331 354.704 525.131 342.223Z"/><path fill="#181818" fill-opacity="0.50196081" d="M504.469 419.27C504.26 413.001 505.348 415.197 501.35 410.667C500.813 410.058 500.532 407.382 503.689 407.782C499.637 410.194 503.258 414.192 504.257 409.142L504.627 409.778C505.831 411.905 507.554 412.265 509.688 411.475C509.766 411.852 509.844 412.156 510.018 412.493C510.364 413.165 510.436 414.025 510.42 414.761C510.364 417.23 513.14 416.542 514.501 417.747C515.856 418.945 516.101 421.463 517.727 422.479C518.605 422.944 521.52 422.794 522.475 424.153C522.095 425.868 519.783 426.109 518.238 426.573C513.748 424.876 508.056 422.546 504.469 419.27Z"/><path fill="#181818" fill-opacity="0.8392157" d="M506.933 348.911C509.444 347.252 511.514 346.328 514.284 345.173C517.355 346.179 521.499 346.357 519.398 349.68C520.919 349.259 506.588 348.889 506.933 348.911Z"/><path fill="#181818" fill-opacity="0.5411765" d="M504.257 409.142C503.258 414.192 499.637 410.194 503.689 407.782L504.257 409.142Z"/><path fill="#14F195" fill-opacity="0.98039216" d="M1287.99 361.087C1292.41 354.906 1296.61 349.184 1303.12 345.046C1317.09 336.155 1338.05 335.776 1352.35 344.099C1374.61 357.064 1371.66 385.241 1371.92 407.07C1372.17 427.325 1371.3 447.799 1372.42 467.936C1360.38 467.985 1343.61 468.588 1332.02 468.017L1332.04 420.021C1332.1 402.916 1336.92 373.757 1312.53 374.381C1285.19 375.079 1291.61 404.526 1290.77 423.175C1290.54 434.739 1290.57 446.858 1290.73 458.45C1290.79 461.61 1290.91 464.769 1291.1 467.923L1251.48 467.91L1251.8 419.059C1251.9 402.126 1256.32 374.611 1231.68 374.353C1221.03 374.242 1211.49 381.99 1211.16 392.769C1210.44 415.899 1209.87 441.051 1210.61 464.149C1210.66 465.391 1210.72 466.633 1210.81 467.873L1170.68 467.943C1170.66 453.422 1170.88 438.045 1170.6 423.589C1171.2 417.61 1170.79 402.792 1170.77 396.342L1170.65 343.328L1171.39 342.065C1186.38 342.03 1201.38 341.846 1216.37 341.513C1210.47 351.439 1211.11 361.33 1210.1 371.942C1209.83 373.028 1209.37 375.179 1210.18 376.107C1210.86 375.7 1211.03 374.899 1211.26 374.165C1214.26 359.68 1218.34 354.168 1227.87 343.706C1239.6 337.843 1252.96 336.448 1265.66 340.371C1276.89 343.842 1282.27 351.69 1287.99 361.087Z"/><path fill="#14F195" fill-opacity="0.98431373" d="M948.727 373.019C961.376 348.844 987.328 334.654 1014.51 337.054C1041.68 339.453 1064.75 357.97 1072.97 383.987C1073.42 385.435 1073.83 386.897 1074.19 388.372C1074.91 391.322 1075.43 394.318 1075.74 397.338C1076.06 400.401 1076.17 403.483 1076.07 406.561C1075.18 433.351 1058.54 457.081 1033.65 467.035C1008.76 476.989 980.34 471.282 961.224 452.492C942.109 433.702 935.914 405.385 945.439 380.33C946.389 377.83 947.487 375.389 948.727 373.019ZM1009.67 435.202C1030.38 431.462 1038.02 417.887 1034.88 396.825C1032.87 383.364 1022.76 375.23 1009.18 374.611C1001.02 375.094 994.477 376.489 988.683 382.948C975.621 397.507 980.166 430.369 1001.95 434.219C1004.4 434.651 1007.21 435.016 1009.67 435.202Z"/><defs><linearGradient id="gradient_1" gradientUnits="userSpaceOnUse" x1="675.92108" y1="295.44229" x2="694.43146" y2="471.28375"><stop offset="0" stop-color="#F9F6F6" stop-opacity="0.96078432"/><stop offset="1" stop-color="#FAF7F7"/></linearGradient></defs><path fill="url(#gradient_1)" d="M623.881 299.663C636.19 299.562 653.174 299.308 665.359 299.911C665.267 328.619 665.45 357.327 665.908 386.031C676.194 373.133 687.11 360.76 697.721 348.132C699.411 346.121 701.018 344.007 702.916 342.188C719.51 341.75 736.95 342.441 753.153 341.858C745.657 351.532 736.197 361.994 728.179 371.442C720.736 380.096 712.56 389.544 704.672 397.788C711.867 408.657 726.791 429.603 732.758 440.15C735.444 444.44 749.68 465.847 749.841 467.895L702.353 467.936C692.497 454.935 683.911 439.734 674.216 426.478C671.313 421.944 668.339 417.456 665.297 413.014C665.315 431.161 665.099 449.862 665.382 467.962L623.901 467.982C624.001 450.547 624.003 433.112 623.908 415.677C624.607 392.707 624.186 364.3 623.849 341.218C624.647 328.5 624.052 312.635 623.881 299.663Z"/><defs><linearGradient id="gradient_2" gradientUnits="userSpaceOnUse" x1="755.02246" y1="352.17105" x2="857.88422" y2="473.47958"><stop offset="0" stop-color="#F8F5F4" stop-opacity="0.96078432"/><stop offset="1" stop-color="#FBF8F8"/></linearGradient></defs><path fill="url(#gradient_2)" d="M771.228 341.782C797.907 334.789 843.682 334.57 858.828 363.035C860.644 368.232 862.181 371.093 863.642 376.763C864.286 381.51 864.484 385.086 864.64 389.809C864.543 407.451 864.589 425.093 864.78 442.734C864.772 445.176 864.59 451.518 865.114 453.53C866.248 463.267 868.721 462.604 870.137 467.793C857.149 468.219 841.978 468.033 829.007 467.894L825.627 461.555C826.179 451.574 825.861 434.999 825.511 425.047C823.722 433.123 822.003 438.525 819.883 446.253C809.026 470.822 789.52 472.837 765.878 468.247C744.817 460.105 738.734 447.11 738.701 425.384C744.903 397.668 762.821 397.026 785.792 391.782C789.797 391.472 792.671 391.266 796.678 390.707C805.09 390.842 814.43 389.702 823.167 389.929C827.78 390.049 822.218 378.698 818.488 375.808C817.778 375.137 817.667 375.091 816.849 374.613C814.958 373.707 812.966 372.622 810.938 372.068C799.758 368.779 789.323 369.277 781.645 378.773C780.056 375.443 781.13 375.471 782.071 372.421C779.197 368.618 778.346 377.082 778.254 377.785C776.298 379.67 764.968 379.866 763.187 379.267C758.881 377.819 756.139 381.688 753.914 379.803C750.24 376.691 755.399 374.211 753.243 371.418C751.667 371.508 750.932 374.15 749.774 375.648C750.484 366.917 751.536 369.318 746.156 362.272C746.988 360.964 747.678 359.323 748.423 357.897C756.776 348.816 759.587 346.63 771.228 341.782ZM785.97 437.862C795.056 440.163 802.557 439.273 810.852 434.591C816.585 431.355 827.643 419.292 824.122 412.252C822.303 412.096 821.244 411.994 819.397 412.085C811.009 412.681 785.274 412.857 779.333 420.531C774.138 427.241 778.423 434.359 785.97 437.862Z"/><path fill="#181818" fill-opacity="0.12156863" d="M790.028 422.253C792.412 419.905 793.589 420.107 794.169 416.521C794.798 414.341 796.386 417.382 796.761 417.307C800.302 416.595 805.13 418.35 808.566 418.574C809.273 419.412 809.737 419.565 810.71 420.15C812.206 420.816 813.272 420.736 813.335 422.472C806.233 425.395 810.411 424.824 807.006 429.875C806.035 431.314 793.814 423.731 791.065 422.777L790.028 422.253Z"/><path fill="#181818" fill-opacity="0.062745102" d="M791.065 422.777C793.814 423.731 806.035 431.314 807.006 429.875C810.411 424.824 806.233 425.395 813.335 422.472C812.842 424.123 813.116 424.001 811.933 425.961C808.28 432.013 806.52 430.251 803.268 432.087C798.875 435.645 792.954 436.635 788.48 432.585C787.719 431.896 788.975 424.346 789.554 423.032C789.583 433.945 791.17 432.62 791.065 422.777Z"/><path fill="#181818" fill-opacity="0.23137255" d="M790.028 422.253L791.065 422.777C791.17 432.62 789.583 433.945 789.554 423.032L790.028 422.253Z"/><path fill="#181818" fill-opacity="0.41568628" d="M809.172 418.557C810.354 418.432 813.044 418.021 814.053 418.756L814.053 418.858C813.812 419.078 813.371 419.13 813.027 419.215C811.613 419.058 810.506 419.028 809.172 418.557Z"/><path fill="#181818" fill-opacity="0.14117648" d="M808.566 418.574L809.172 418.557C810.506 419.028 811.613 419.058 813.027 419.215L810.71 420.15C809.737 419.565 809.273 419.412 808.566 418.574Z"/><defs><linearGradient id="gradient_3" gradientUnits="userSpaceOnUse" x1="263.80081" y1="341.39865" x2="376.64572" y2="427.7077"><stop offset="0" stop-color="#F8F5F5" stop-opacity="0.96470588"/><stop offset="1" stop-color="#FAF7F6"/></linearGradient></defs><path fill="url(#gradient_3)" d="M292.679 315.543C306.516 301.367 320.248 286.534 342.31 301.88C351.313 308.143 358.543 316.867 366.603 324.27C379.316 338.197 399.286 352.657 407.272 369.834C410.166 378.157 407.34 392.447 401.576 398.449C379.975 420.941 357.427 443.656 334.998 465.123C322.347 477.231 301.778 473.858 290.954 461.452C290.374 460.788 287.132 457.828 286.41 457.426C286.07 456.98 283.871 454.326 283.954 454.077C285.817 448.473 304.384 434.603 306.137 430.459C308.188 431.411 308.943 431.457 310.258 433.379C312.062 434.841 312.336 435.118 314.59 435.585C321.497 434.374 349.255 403.897 355.619 396.953C356.893 396.039 364.312 388.777 365.837 387.244C369.686 384.095 370.785 382.994 372.114 378.248C370.731 373.446 328.944 332.279 323.522 332.605C317.713 336.709 271.295 382.029 270.587 386.044C270.206 388.2 270.518 389.811 271.793 391.623C272.948 393.263 274.372 394.48 275.948 395.695C276.28 396.085 276.606 396.389 276.97 396.748C275.484 400.133 261.086 414.024 257.627 416.939C254.429 413.642 252.469 412.112 248.89 409.334C246.776 406.763 246.214 405.79 244.633 402.835C244.59 396.849 244.767 392.184 245.579 386.254C245.968 383.415 244.168 380.661 244.174 379.874C244.204 376.177 243.888 372.592 243.697 368.908C245.749 360.446 264.849 343.268 271.972 335.925C277.777 330.265 287.424 321.23 292.679 315.543Z"/><defs><linearGradient id="gradient_4" gradientUnits="userSpaceOnUse" x1="219.49881" y1="307.0274" x2="271.29388" y2="463.35602"><stop offset="0" stop-color="#F7F4F3" stop-opacity="0.90588236"/><stop offset="1" stop-color="#F9F6F5"/></linearGradient></defs><path fill="url(#gradient_4)" d="M272.373 457.326C264.775 464.874 259.066 472.09 247.058 472.326C236.934 472.546 228.466 469.866 221.322 462.379C203.556 443.761 182.687 426.722 166.735 406.602C162.986 400.654 161.38 389.543 163.054 382.578C164.412 376.932 172.281 366.973 176.27 362.935C192.67 346.301 209.387 329.783 225.713 313.096C235.511 303.08 241.334 295.737 256.694 295.671C270.194 295.612 277.419 303.267 286.291 311.839C286.428 314.074 286.051 314.557 284.204 315.908L282.353 314.888C275.993 318.593 271.307 324.462 265.526 329.093L265.886 329.778L267.445 329.994C263.256 332.136 249.994 328.245 246.05 334.334C245.972 335.542 245.767 335.149 246.246 335.965C244.52 340.863 244.417 341.305 244.66 346.365C241.556 348.428 240.673 349 237.211 350.284C230.568 348.971 228.15 356.019 223.229 359.244C222.361 359.812 220.005 360.729 219.902 361.693C220.211 362.106 220.943 362.085 221.081 362.58C219.992 364.375 204.801 378.339 203.039 381.367C203.038 381.37 203.486 382.295 203.487 382.297C193.406 393.551 202.407 396.997 210.68 405.382C212.362 407.063 214.161 408.94 215.878 410.551C219.143 413.817 238.58 432.786 239.837 435.041C242.813 436.03 243.546 436.295 246.743 435.378C250.132 433.344 254.68 428.21 257.405 425.173C260.662 422.25 277.034 406.448 279.155 403.427C281.366 401.454 283.112 399.615 285.193 397.513C289.801 392.565 294.784 388.159 299.088 383.422C299.23 378.029 299.044 376.614 300.213 371.223C302.276 367.216 304.788 363.063 309.41 361.925C333.065 356.101 328.217 383.792 327.703 396.877C323.077 406.699 314.442 415.832 306.242 423.017L305.079 424.435C297.514 431.644 278.707 449.993 272.373 457.326Z"/><path fill="#14F195" fill-opacity="0.96078432" d="M881.021 341.909C882.376 327.677 883.297 318.308 895.142 307.424C907.607 295.97 938.638 296.347 955.098 297.705L951.839 329.994C940.001 329.977 924.166 326.591 918.649 339.867L918.824 341.213C924.358 343.164 942.781 341.682 950.466 342.162C949.35 345.911 942.692 367.146 942.393 369.509C941.526 372.035 941.58 372.317 941.18 374.892L922.747 375.106C922.411 405.982 923.137 437.083 922.988 468.031C912.311 468.024 900.259 467.748 889.692 468.138C878.567 467.596 881.206 469.747 880.538 458.599C880.827 454.917 880.672 447.275 880.572 443.5C881.153 437.135 880.867 424.84 880.851 418.101C880.715 403.87 880.82 389.637 881.165 375.41C877.973 374.451 868.859 374.977 865.318 375.325C862.624 373.501 863.915 363.566 863.935 359.937C863.924 354.277 863.747 347.59 864.025 342.019C869.634 341.987 875.433 342.036 881.021 341.909ZM913.989 463.682C913.884 463.06 913.958 463.276 913.804 462.959C913.205 462.984 913.41 462.984 912.764 463.316C913.244 463.753 913.342 463.772 913.989 463.682Z"/><path fill="#14F195" fill-opacity="0.92941177" d="M912.764 463.316C913.41 462.984 913.205 462.984 913.804 462.959C913.958 463.276 913.884 463.06 913.989 463.682C913.342 463.772 913.244 463.753 912.764 463.316Z"/><path fill="#14F195" fill-opacity="0.98431373" d="M1137.52 344.402C1137.8 344.219 1138.08 344.038 1138.35 343.858C1146.36 338.678 1155.02 337.342 1164.26 339.283C1163.32 351.92 1164.96 368.949 1163.82 380.278C1156.4 382.244 1148.23 380.006 1139.39 383.107C1122.12 389.16 1121.91 403.391 1122.06 419.145C1122.4 435.356 1121.35 451.789 1122.74 467.958L1082.22 467.997C1082.25 451.71 1083.46 424.028 1082.21 409.113C1082.6 389.995 1082.23 371.162 1082.09 352.051L1082.11 341.921C1097.22 341.808 1112.33 341.787 1127.45 341.858C1122.99 349.325 1121.47 353.491 1120.24 362.062C1119.61 367.147 1119.83 371.338 1119.66 376.411L1119.74 378.159C1119.76 378.816 1119.65 379.886 1120.17 380.348C1121.06 379.521 1121.14 376.266 1121.24 375.04C1121.55 372.062 1122.18 370.426 1122.63 367.638C1126.68 356.691 1129.22 352.542 1137.52 344.402ZM1112.44 463.587C1112.76 463.09 1112.94 463.018 1112.88 462.53C1112.42 461.908 1110.35 462.13 1109.59 462.11C1109.81 464.551 1110.3 464.416 1112.44 463.587Z"/><path fill="#14F195" fill-opacity="0.9137255" d="M1109.59 462.11C1110.35 462.13 1112.42 461.908 1112.88 462.53C1112.94 463.018 1112.76 463.09 1112.44 463.587C1110.3 464.416 1109.81 464.551 1109.59 462.11Z"/><defs><linearGradient id="gradient_5" gradientUnits="userSpaceOnUse" x1="232.88193" y1="407.27811" x2="238.68597" y2="328.39093"><stop offset="0" stop-color="#171717" stop-opacity="0.54509807"/><stop offset="1" stop-color="#181717" stop-opacity="0.87450981"/></linearGradient></defs><path fill="url(#gradient_5)" d="M269.946 330.274C271.395 331.438 271.245 333.741 271.972 335.925C264.849 343.268 245.749 360.446 243.697 368.908C241.89 376.192 241.938 395.367 244.633 402.835C246.214 405.79 246.776 406.763 248.89 409.334L244.432 407.641C242.585 402.152 237.75 407.271 234.037 408.489L233.875 410.372C226.996 405.545 233.175 400.17 226.176 406.884C224.661 408.337 223.028 404.325 218.3 404.988L218.206 405.124C217.236 405.584 212.166 405.39 210.68 405.382C202.407 396.997 193.406 393.551 203.487 382.297C213.048 374.257 228.306 356.024 237.211 350.284C240.673 349 241.556 348.428 244.66 346.365C250.296 331.441 251.503 336.001 265.331 335.317C265.95 335.286 266.311 333.337 266.413 332.847C267.271 331.825 268.764 331.033 269.946 330.274Z"/><path fill="#181818" fill-opacity="0.039215688" d="M728.179 371.442L730.136 371.922C735.691 373.852 730.43 378.224 734.611 380.228C736.89 381.32 738.671 380.753 738.177 384.812C737.883 387.233 730.033 388.121 736.163 389.938C738.996 390.778 743.331 387.225 745.897 386.765C748.679 386.025 754.109 388.109 752.968 383.329C760.308 383.291 771.697 382.943 778.66 383.688C779.564 384.139 783.972 384.747 786.059 385.479C783.807 389.025 786.149 388.673 785.027 391.071C785.137 391.468 785.383 391.511 785.792 391.782C762.821 397.026 744.903 397.668 738.701 425.384C735.846 430.563 740.948 435.834 736.181 439.771L732.758 440.15C726.791 429.603 711.867 408.657 704.672 397.788C712.56 389.544 720.736 380.096 728.179 371.442Z"/><path fill="#181818" fill-opacity="0.75686276" d="M275.948 395.695C274.372 394.48 272.948 393.263 271.793 391.623C270.518 389.811 270.206 388.2 270.587 386.044C271.295 382.029 317.713 336.709 323.522 332.605C328.944 332.279 370.731 373.446 372.114 378.248C370.26 377.093 367.501 374.183 365.826 372.534C364.273 371.08 362.78 369.825 361.161 368.458C359.005 365.837 355.876 364.009 353.443 360.965C352.961 360.707 352.484 360.443 352.01 360.171C350.78 359.478 348.422 358.681 347.004 359.013C346.869 359.044 343.187 363.124 343.219 363.394C343.501 365.556 341.233 374.865 337.987 370.393C335.951 367.588 334.465 371.234 332.973 369.767C332.605 369.405 333.429 369.413 332.62 368.347C331.282 369.435 329.611 380.504 329.43 382.842C329.438 385.79 329.419 388.738 329.373 391.686C328.895 393.335 328.393 395.337 327.703 396.877C328.217 383.792 333.065 356.101 309.41 361.925C304.788 363.063 302.276 367.216 300.213 371.223C299.246 366.589 298.43 364.368 292.891 366.171C292.199 366.396 284.987 374.048 284.958 374.236C284.212 379.011 279.449 376.004 277.552 380.263C276.315 383.896 271.638 385.83 272.867 390.006C273.903 392.465 274.702 392.514 275.948 395.695Z"/><path fill="#181818" fill-opacity="0.019607844" d="M881.165 375.41C880.82 389.637 880.715 403.87 880.851 418.101C880.867 424.84 881.153 437.135 880.572 443.5C879.863 445.414 879.335 446.886 878.556 448.785L878.455 448.819C877.699 448.43 877.304 445.599 876.489 444.603C873.787 445.698 877.188 451.528 875.719 454.294C870.674 453.827 872.217 454.88 871.9 450.067C871.882 449.797 871.244 448.971 870.967 448.87C868 447.794 868.969 443.339 866.496 442.318L866.201 442.567C866.13 442.912 866.128 443.269 865.822 443.488C865.354 443.294 865.19 443.113 864.78 442.734C864.589 425.093 864.543 407.451 864.64 389.809C867.463 388.41 866.456 393.394 869.478 385.204C869.918 384.012 879.725 385.221 876.297 376.867C877.055 375.759 879.476 375.793 881.165 375.41Z"/><path fill="#181818" fill-opacity="0.19607843" d="M319.895 421.408C320.034 421.355 320.172 421.303 320.311 421.25C320.468 421.372 320.375 421.267 320.559 421.689C320.414 421.716 320.269 421.743 320.123 421.77C319.936 421.634 320.024 421.738 319.895 421.408Z"/><path fill="#181818" fill-opacity="0.63529414" d="M275.948 395.695C274.702 392.514 273.903 392.465 272.867 390.006C271.638 385.83 276.315 383.896 277.552 380.263C279.449 376.004 284.212 379.011 284.958 374.236C284.987 374.048 292.199 366.396 292.891 366.171C298.43 364.368 299.246 366.589 300.213 371.223C299.044 376.614 299.23 378.029 299.088 383.422C294.784 388.159 289.801 392.565 285.193 397.513C281.563 396.839 281.466 396.807 277.744 396.649L276.97 396.748C276.606 396.389 276.28 396.085 275.948 395.695ZM286.29 390.181C286.752 390.035 290.527 388.984 290.523 388.987C293.019 386.295 291.784 384.416 289.03 383.938C286.906 385.471 279.347 389.358 286.29 390.181Z"/><path fill="#181818" fill-opacity="0.52941179" d="M289.03 383.938C291.784 384.416 293.019 386.295 290.523 388.987C290.527 388.984 286.752 390.035 286.29 390.181C279.347 389.358 286.906 385.471 289.03 383.938Z"/><path fill="#181818" fill-opacity="0.37254903" d="M353.443 360.965C355.876 364.009 359.005 365.837 361.161 368.458C358.016 374.851 361.094 377.386 365.826 372.534C367.501 374.183 370.26 377.093 372.114 378.248C370.785 382.994 369.686 384.095 365.837 387.244C365.417 383.199 364.661 383.702 360.534 383.379C358.052 383.185 359.22 388.436 358.111 387.915C356.415 387.118 350.072 390.37 349.816 390.289C346.17 389.136 343.149 389.925 339.488 389.46C337.81 389.211 335.998 383.681 333.13 386.077C331.774 387.21 330.347 389.563 329.95 391.301L329.373 391.686C329.419 388.738 329.438 385.79 329.43 382.842C331.768 379.86 331.16 378.506 334.208 376.056C336.063 376.272 344.932 383.98 350.898 378.645C353.272 376.523 357.884 375.967 358.361 373.406C357.207 371.335 354.874 372.06 353.288 372.174C351.503 370.543 352.388 369.543 352.081 367.49C351.637 365.862 349.291 365.594 348.491 364.435C347.041 362.336 352.083 361.4 353.443 360.965Z"/><path fill="#181818" fill-opacity="0.56862748" d="M233.875 410.372L234.037 408.489C235.66 414.608 236.289 414.436 241.244 415.157C242.798 415.383 245.693 419.613 248.653 417.989C253.793 415.788 247.779 413.118 245.659 412.106C245.013 411.797 244.596 408.482 244.432 407.641L248.89 409.334C252.469 412.112 254.429 413.642 257.627 416.939C260.375 421.247 259.154 420.521 257.405 425.173C254.68 428.21 250.132 433.344 246.743 435.378C246.745 435.365 246.951 434.093 246.946 434.081C245.966 431.957 255.458 423.1 253.201 422.098C250.602 420.945 246.531 425.403 245.096 427.223C242.498 430.52 241.68 431.255 239.837 435.041C238.58 432.786 219.143 413.817 215.878 410.551C218.084 410.599 222.57 410.33 223.487 411.752C226.047 415.722 228.033 419.321 228.052 411.748C228.057 409.842 229.784 409.108 231.814 411.059C230.554 410.758 229.255 411.386 228.71 412.562C228.166 413.738 228.525 415.135 229.57 415.902C230.615 416.668 232.056 416.592 233.014 415.719C233.972 414.846 234.182 413.419 233.516 412.308C233.564 411.586 233.596 411.116 233.719 410.403L233.875 410.372Z"/><path fill="#181818" fill-opacity="0.93725491" d="M623.849 341.218C624.186 364.3 624.607 392.707 623.908 415.677C623.551 412.822 623.606 410.665 621.619 408.632L619.928 408.269C615.274 411.658 616.187 414.376 612.476 417.407C621.125 395.948 620.78 371.913 611.518 350.712C612.474 351.181 613.436 351.639 614.404 352.086C617.319 353.423 618.413 353.841 621.253 352.781C623.665 349.939 623.541 345.068 623.849 341.218Z"/><path fill="#181818" fill-opacity="0.52156866" d="M329.43 382.842C329.611 380.504 331.282 369.435 332.62 368.347C333.429 369.413 332.605 369.405 332.973 369.767C334.465 371.234 335.951 367.588 337.987 370.393C341.233 374.865 343.501 365.556 343.219 363.394C343.187 363.124 346.869 359.044 347.004 359.013C348.422 358.681 350.78 359.478 352.01 360.171C352.484 360.443 352.961 360.707 353.443 360.965C352.083 361.4 347.041 362.336 348.491 364.435C349.291 365.594 351.637 365.862 352.081 367.49C352.388 369.543 351.503 370.543 353.288 372.174C354.874 372.06 357.207 371.335 358.361 373.406C357.884 375.967 353.272 376.523 350.898 378.645C344.932 383.98 336.063 376.272 334.208 376.056C331.16 378.506 331.768 379.86 329.43 382.842Z"/><path fill="#181818" fill-opacity="0.39607844" d="M781.645 378.773C789.323 369.277 799.758 368.779 810.938 372.068C808.097 372.225 802.372 371.23 804.774 375.639C801.265 375.807 799.884 374.573 796.47 376.145C793.353 377.581 794.97 383.622 797.604 382.853C797.416 380.637 799.367 378.114 801.151 376.949C803.464 377.798 803.903 378.08 806.025 379.339C805.527 379.422 797.28 380.589 800.723 383.665C802.176 384.963 809.918 384.008 813.253 384.947C812.053 386.729 797.783 386.18 794.754 386.289C794.126 386.057 793.613 385.815 793.004 385.541C793.321 383.758 788.801 385.172 787.828 385.375C787.222 385.431 786.665 385.502 786.059 385.479C783.972 384.747 779.564 384.139 778.66 383.688C782.288 383.036 782.189 382.527 781.645 378.773ZM791.262 384.591C794.3 382.412 792.689 377.584 787.877 376.784C782.082 382.853 786.228 383.768 791.262 384.591Z"/><path fill="#181818" fill-opacity="0.10980392" d="M787.877 376.784C792.689 377.584 794.3 382.412 791.262 384.591C786.228 383.768 782.082 382.853 787.877 376.784Z"/><path fill="#181818" fill-opacity="0.098039217" d="M329.95 391.301C330.347 389.563 331.774 387.21 333.13 386.077C335.998 383.681 337.81 389.211 339.488 389.46C343.149 389.925 346.17 389.136 349.816 390.289C350.072 390.37 356.415 387.118 358.111 387.915C359.22 388.436 358.052 383.185 360.534 383.379C364.661 383.702 365.417 383.199 365.837 387.244C364.312 388.777 356.893 396.039 355.619 396.953C354.044 395.898 349.177 393.836 348.361 395.441C347.557 397.021 338.141 402.784 337.696 402.529C337.533 402.212 340.014 390.529 329.95 391.301Z"/><path fill="#181818" fill-opacity="0.082352944" d="M737.668 363.905C745.82 365.679 742.534 368.793 743.743 376.152L743.782 376.629C744.454 385.347 741.95 383.561 752.968 383.329C754.109 388.109 748.679 386.025 745.897 386.765C743.331 387.225 738.996 390.778 736.163 389.938C730.033 388.121 737.883 387.233 738.177 384.812C738.671 380.753 736.89 381.32 734.611 380.228C730.43 378.224 735.691 373.852 730.136 371.922C733.757 366.645 732.598 367.828 737.668 363.905Z"/><path fill="#181818" fill-opacity="0.87450981" d="M1164.26 339.283L1164.81 341.301C1164.81 342.543 1163.67 352.374 1169.36 347.869C1169.85 347.484 1170.41 344.278 1170.65 343.328L1170.77 396.342C1170.79 402.792 1171.2 417.61 1170.6 423.589C1168.73 415.04 1173.11 383.568 1167.76 378.355C1165 378.721 1166.05 378.273 1163.82 380.278C1164.96 368.949 1163.32 351.92 1164.26 339.283Z"/><path fill="#181818" fill-opacity="0.87450981" d="M305.079 424.435C305.278 426.527 304.91 428.851 306.137 430.459C304.384 434.603 285.817 448.473 283.954 454.077C283.871 454.326 286.07 456.98 286.41 457.426C277.857 453.912 281.246 453.177 272.373 457.326C278.707 449.993 297.514 431.644 305.079 424.435Z"/><path fill="#181818" fill-opacity="0.082352944" d="M864.78 442.734C865.19 443.113 865.354 443.294 865.822 443.488C866.128 443.269 866.13 442.912 866.201 442.567L866.496 442.318C868.969 443.339 868 447.794 870.967 448.87C871.244 448.971 871.882 449.797 871.9 450.067C872.217 454.88 870.674 453.827 875.719 454.294C877.188 451.528 873.787 445.698 876.489 444.603C877.304 445.599 877.699 448.43 878.455 448.819L878.556 448.785C879.335 446.886 879.863 445.414 880.572 443.5C880.672 447.275 880.827 454.917 880.538 458.599C879.851 460.638 879.785 464.31 877.51 464.454C868.887 464.997 870.682 457.596 866.436 454.483L865.114 453.53C864.59 451.518 864.772 445.176 864.78 442.734Z"/><path fill="#181818" fill-opacity="0.94901961" d="M732.758 440.15L736.181 439.771C740.948 435.834 735.846 430.563 738.701 425.384C738.734 447.11 744.817 460.105 765.878 468.247C758.817 467.513 756.965 467.557 749.841 467.895C749.68 465.847 735.444 444.44 732.758 440.15Z"/><path fill="#181818" fill-opacity="0.80784315" d="M753.153 341.858C760.193 344.444 763.824 343.054 771.228 341.782C759.587 346.63 756.776 348.816 748.423 357.897C744.719 352.745 739.35 360.86 737.668 363.905C732.598 367.828 733.757 366.645 730.136 371.922L728.179 371.442C736.197 361.994 745.657 351.532 753.153 341.858Z"/><path fill="#181818" fill-opacity="0.25490198" d="M818.488 375.808C822.218 378.698 827.78 390.049 823.167 389.929C814.43 389.702 805.09 390.842 796.678 390.707C797.22 390.085 797.208 390.349 797.276 389.68C795.843 388.388 795.639 387.985 794.754 386.289C797.783 386.18 812.053 386.729 813.253 384.947C813.312 383.265 813.296 382.432 813.641 380.77C813.754 380.255 813.975 379.388 813.963 378.911L814.597 378.451C815.054 379.402 816.076 382.444 816.475 382.863C820.874 383.57 818.982 377.64 818.488 375.808Z"/><path fill="#F8F6F5" fill-opacity="0.94901961" d="M749.774 375.648C750.932 374.15 751.667 371.508 753.243 371.418C755.399 374.211 750.24 376.691 753.914 379.803C756.139 381.688 758.881 377.819 763.187 379.267C764.968 379.866 776.298 379.67 778.254 377.785C778.346 377.082 779.197 368.618 782.071 372.421C781.13 375.471 780.056 375.443 781.645 378.773C782.189 382.527 782.288 383.036 778.66 383.688C771.697 382.943 760.308 383.291 752.968 383.329C750.331 380.188 749.022 379.967 749.774 375.648Z"/><path fill="#181818" fill-opacity="0.98431373" d="M1216.37 341.513L1216.63 341.941C1218.52 345.07 1217.1 349.988 1223.44 345.478C1224.82 344.494 1226.29 344.163 1227.87 343.706C1218.34 354.168 1214.26 359.68 1211.26 374.165C1210.88 373.412 1210.51 372.683 1210.1 371.942C1211.11 361.33 1210.47 351.439 1216.37 341.513Z"/><path fill="#181818" fill-opacity="0.32941177" d="M1072.97 383.987C1074.62 383.9 1077.66 385.099 1079.73 385.615C1082.59 381.866 1079.27 362.587 1081.94 352.607L1082.09 352.051C1082.23 371.162 1082.6 389.995 1082.21 409.113C1082.13 408.382 1082.04 407.651 1081.95 406.921C1081.6 404.2 1081.55 402.087 1079.31 400.358C1076.14 401.776 1076.76 403.224 1076.07 406.561C1076.17 403.483 1076.06 400.401 1075.74 397.338C1075.85 396.594 1076.21 393.164 1076.33 392.767L1076.38 392.753L1076.3 392.879C1077.18 393.121 1077.26 393.605 1078.01 393.561C1079.8 391.86 1076.87 388.658 1074.19 388.372C1073.83 386.897 1073.42 385.435 1072.97 383.987Z"/><defs><linearGradient id="gradient_6" gradientUnits="userSpaceOnUse" x1="271.02142" y1="410.6763" x2="266.86517" y2="407.67242"><stop offset="0" stop-color="#181816" stop-opacity="0.7647059"/><stop offset="1" stop-color="#1A1918" stop-opacity="0.81176472"/></linearGradient></defs><path fill="url(#gradient_6)" d="M276.97 396.748L277.744 396.649C278.144 400.205 276.814 400.905 279.155 403.427C277.034 406.448 260.662 422.25 257.405 425.173C259.154 420.521 260.375 421.247 257.627 416.939C261.086 414.024 275.484 400.133 276.97 396.748Z"/><path fill="#181818" fill-opacity="0.89803922" d="M286.291 311.839C289.876 314.753 288.079 313.518 292.679 315.543C287.424 321.23 277.777 330.265 271.972 335.925C271.245 333.741 271.395 331.438 269.946 330.274C270.935 328.603 281.649 318.949 284.204 315.908C286.051 314.557 286.428 314.074 286.291 311.839Z"/><path fill="#181818" fill-opacity="0.12941177" d="M865.318 375.325C868.859 374.977 877.973 374.451 881.165 375.41C879.476 375.793 877.055 375.759 876.297 376.867C879.725 385.221 869.918 384.012 869.478 385.204C866.456 393.394 867.463 388.41 864.64 389.809C864.484 385.086 864.286 381.51 863.642 376.763C864.197 376.28 864.756 375.8 865.318 375.325Z"/><path fill="#181818" fill-opacity="0.9137255" d="M1127.45 341.858C1128.52 344.442 1129.61 346.395 1130.7 348.942C1131.27 349.339 1131.66 348.18 1131.81 347.802C1132.71 345.362 1135.32 345.016 1137.52 344.402C1129.22 352.542 1126.68 356.691 1122.63 367.638C1119.82 366.721 1120.75 365.111 1120.24 362.062C1121.47 353.491 1122.99 349.325 1127.45 341.858Z"/><path fill="#F0FDF4" d="M746.156 362.272C751.536 369.318 750.484 366.917 749.774 375.648C749.022 379.967 750.331 380.188 752.968 383.329C741.95 383.561 744.454 385.347 743.782 376.629L743.743 376.152C743.739 369.076 743.704 368.857 746.156 362.272Z"/><path fill="#181818" fill-opacity="0.3882353" d="M234.037 408.489C237.75 407.271 242.585 402.152 244.432 407.641C244.596 408.482 245.013 411.797 245.659 412.106C247.779 413.118 253.793 415.788 248.653 417.989C245.693 419.613 242.798 415.383 241.244 415.157C236.289 414.436 235.66 414.608 234.037 408.489Z"/><path fill="#F8F6F5" fill-opacity="0.97647059" d="M246.246 335.965C245.767 335.149 245.972 335.542 246.05 334.334C249.994 328.245 263.256 332.136 267.445 329.994L265.886 329.778L265.526 329.093C271.307 324.462 275.993 318.593 282.353 314.888L284.204 315.908C281.649 318.949 270.935 328.603 269.946 330.274C268.764 331.033 267.271 331.825 266.413 332.847C261.921 332.743 257.25 331.976 252.738 332.229C249.695 332.4 248.552 334.732 246.246 335.965Z"/><path fill="#181818" fill-opacity="0.5529412" d="M210.68 405.382C212.166 405.39 217.236 405.584 218.206 405.124L218.3 404.988C223.028 404.325 224.661 408.337 226.176 406.884C233.175 400.17 226.996 405.545 233.875 410.372L233.719 410.403C233.596 411.116 233.564 411.586 233.516 412.308C233.139 411.68 232.526 411.23 231.814 411.059C229.784 409.108 228.057 409.842 228.052 411.748C228.033 419.321 226.047 415.722 223.487 411.752C222.57 410.33 218.084 410.599 215.878 410.551C214.161 408.94 212.362 407.063 210.68 405.382ZM222.041 411.077C223.011 408.36 222.937 408.189 220.575 406.42C218.466 409.444 219.204 408.961 222.041 411.077Z"/><path fill="#181818" fill-opacity="0.52549022" d="M220.575 406.42C222.937 408.189 223.011 408.36 222.041 411.077C219.204 408.961 218.466 409.444 220.575 406.42Z"/><path fill="#F8F6F5" fill-opacity="0.94509804" d="M203.487 382.297C203.486 382.295 203.038 381.37 203.039 381.367C204.801 378.339 219.992 364.375 221.081 362.58C220.943 362.085 220.211 362.106 219.902 361.693C220.005 360.729 222.361 359.812 223.229 359.244C228.15 356.019 230.568 348.971 237.211 350.284C228.306 356.024 213.048 374.257 203.487 382.297Z"/><path fill="#181818" fill-opacity="0.95686275" d="M865.114 453.53L866.436 454.483C870.682 457.596 868.887 464.997 877.51 464.454C879.785 464.31 879.851 460.638 880.538 458.599C881.206 469.747 878.567 467.596 889.692 468.138C883.388 468.948 877.265 467.689 870.137 467.793C868.721 462.604 866.248 463.267 865.114 453.53Z"/><path fill="#181818" fill-opacity="0.070588239" d="M666.13 452.694C665.862 443.676 666.543 434.627 666.097 425.596C665.929 422.174 669.366 422.132 670.598 423.979C669.539 425.691 668.217 435.707 668.794 437.2C670.691 442.114 672.081 443.999 667.161 447.395C667.265 447.325 666.429 451.58 666.13 452.694Z"/><path fill="#181818" fill-opacity="0.4627451" d="M239.837 435.041C241.68 431.255 242.498 430.52 245.096 427.223C246.531 425.403 250.602 420.945 253.201 422.098C255.458 423.1 245.966 431.957 246.946 434.081C246.951 434.093 246.745 435.365 246.743 435.378C243.546 436.295 242.813 436.03 239.837 435.041Z"/><path fill="#181818" fill-opacity="0.98823529" d="M665.297 413.014C668.339 417.456 671.313 421.944 674.216 426.478L670.598 423.979C669.366 422.132 665.929 422.174 666.097 425.596C666.543 434.627 665.862 443.676 666.13 452.694C666.079 456.833 667.016 465.612 665.382 467.962C665.099 449.862 665.315 431.161 665.297 413.014Z"/><path fill="#181818" fill-opacity="0.87058824" d="M246.246 335.965C248.552 334.732 249.695 332.4 252.738 332.229C257.25 331.976 261.921 332.743 266.413 332.847C266.311 333.337 265.95 335.286 265.331 335.317C251.503 336.001 250.296 331.441 244.66 346.365C244.417 341.305 244.52 340.863 246.246 335.965Z"/><path fill="#7A7977" d="M825.511 425.047C825.861 434.999 826.179 451.574 825.627 461.555C823.954 456.867 825.42 446.93 824.303 445.706C823.734 445.664 821.269 446.2 819.883 446.253C822.003 438.525 823.722 433.123 825.511 425.047Z"/><path fill="#181818" fill-opacity="0.67843139" d="M737.668 363.905C739.35 360.86 744.719 352.745 748.423 357.897C747.678 359.323 746.988 360.964 746.156 362.272C743.704 368.857 743.739 369.076 743.743 376.152C742.534 368.793 745.82 365.679 737.668 363.905Z"/><path fill="#F8F6F5" fill-opacity="0.93333334" d="M243.697 368.908C243.888 372.592 244.204 376.177 244.174 379.874C244.168 380.661 245.968 383.415 245.579 386.254C244.767 392.184 244.59 396.849 244.633 402.835C241.938 395.367 241.89 376.192 243.697 368.908Z"/><path fill="#181818" fill-opacity="0.019607844" d="M810.938 372.068C812.966 372.622 814.958 373.707 816.849 374.613C816.369 377.03 816.206 376.657 814.597 378.451L813.963 378.911C810.347 378.585 810.044 379.06 807.484 376.441C806.569 376.158 805.702 375.884 804.774 375.639C802.372 371.23 808.097 372.225 810.938 372.068Z"/><path fill="#181818" fill-opacity="0.32549021" d="M806.025 379.339C808.816 380.36 810.679 380.567 813.641 380.77C813.296 382.432 813.312 383.265 813.253 384.947C809.918 384.008 802.176 384.963 800.723 383.665C797.28 380.589 805.527 379.422 806.025 379.339Z"/><path fill="#181818" fill-opacity="0.20784314" d="M306.242 423.017C308.297 424.527 309.738 425.577 311.67 427.285C312.722 428.641 313.325 428.195 315.034 428.189C311.053 429.929 312.238 429.316 310.258 433.379C308.943 431.457 308.188 431.411 306.137 430.459C304.91 428.851 305.278 426.527 305.079 424.435L306.242 423.017Z"/><path fill="#181818" d="M858.828 363.035C860.915 361.946 862.413 361.693 863.935 359.937C863.915 363.566 862.624 373.501 865.318 375.325C864.756 375.8 864.197 376.28 863.642 376.763C862.181 371.093 860.644 368.232 858.828 363.035Z"/><path fill="#181818" fill-opacity="0.047058824" d="M942.393 369.509C944.131 370.618 944.578 368.099 946.079 368.747C945.642 368.559 948.392 372.616 948.727 373.019C947.487 375.389 946.389 377.83 945.439 380.33C945.123 375.827 945.753 376.035 941.18 374.892C941.58 372.317 941.526 372.035 942.393 369.509Z"/><path fill="#181818" fill-opacity="0.65098041" d="M1164.81 341.301L1165.38 341.41C1168.67 342.056 1167.92 342.167 1171.39 342.065L1170.65 343.328C1170.41 344.278 1169.85 347.484 1169.36 347.869C1163.67 352.374 1164.81 342.543 1164.81 341.301Z"/><path fill="#181818" fill-opacity="0.43137255" d="M801.151 376.949C799.367 378.114 797.416 380.637 797.604 382.853C794.97 383.622 793.353 377.581 796.47 376.145C799.884 374.573 801.265 375.807 804.774 375.639C805.702 375.884 806.569 376.158 807.484 376.441C805.091 376.516 803.529 376.715 801.151 376.949Z"/><path fill="#181818" fill-opacity="0.72156864" d="M277.744 396.649C281.466 396.807 281.563 396.839 285.193 397.513C283.112 399.615 281.366 401.454 279.155 403.427C276.814 400.905 278.144 400.205 277.744 396.649Z"/><path fill="#181818" fill-opacity="0.16078432" d="M816.849 374.613C817.667 375.091 817.778 375.137 818.488 375.808C818.982 377.64 820.874 383.57 816.475 382.863C816.076 382.444 815.054 379.402 814.597 378.451C816.206 376.657 816.369 377.03 816.849 374.613Z"/><path fill="#181818" fill-opacity="0.51764709" d="M807.484 376.441C810.044 379.06 810.347 378.585 813.963 378.911C813.975 379.388 813.754 380.255 813.641 380.77C810.679 380.567 808.816 380.36 806.025 379.339C803.903 378.08 803.464 377.798 801.151 376.949C803.529 376.715 805.091 376.516 807.484 376.441Z"/><path fill="#181818" fill-opacity="0.26666668" d="M361.161 368.458C362.78 369.825 364.273 371.08 365.826 372.534C361.094 377.386 358.016 374.851 361.161 368.458Z"/><path fill="#181818" fill-opacity="0.61960787" d="M233.516 412.308C234.182 413.419 233.972 414.846 233.014 415.719C232.056 416.592 230.615 416.668 229.57 415.902C228.525 415.135 228.166 413.738 228.71 412.562C229.255 411.386 230.554 410.758 231.814 411.059C232.526 411.23 233.139 411.68 233.516 412.308Z"/><path fill="#04231C" d="M1120.24 362.062C1120.75 365.111 1119.82 366.721 1122.63 367.638C1122.18 370.426 1121.55 372.062 1121.24 375.04L1119.66 376.411C1119.83 371.338 1119.61 367.147 1120.24 362.062Z"/><path fill="#181818" fill-opacity="0.36470589" d="M1074.19 388.372C1076.87 388.658 1079.8 391.86 1078.01 393.561C1077.26 393.605 1077.18 393.121 1076.3 392.879L1076.38 392.753L1076.33 392.767C1076.21 393.164 1075.85 396.594 1075.74 397.338C1075.43 394.318 1074.91 391.322 1074.19 388.372Z"/><path fill="#181818" fill-opacity="0.37254903" d="M311.67 427.285C314.105 426.316 316.163 424.695 315.034 428.189C313.325 428.195 312.722 428.641 311.67 427.285Z"/><path fill="#0E8D73" d="M1121.24 375.04C1121.14 376.266 1121.06 379.521 1120.17 380.348C1119.65 379.886 1119.76 378.816 1119.74 378.159L1119.66 376.411L1121.24 375.04Z"/><path fill="#0E8D73" d="M1211.26 374.165C1211.03 374.899 1210.86 375.7 1210.18 376.107C1209.37 375.179 1209.83 373.028 1210.1 371.942C1210.51 372.683 1210.88 373.412 1211.26 374.165Z"/><path fill="#181818" fill-opacity="0.72156864" d="M787.828 385.375C788.801 385.172 793.321 383.758 793.004 385.541C791.277 385.532 789.551 385.476 787.828 385.375Z"/><path fill="#181818" fill-opacity="0.23529412" d="M290.962 303.827C291.602 303.587 291.374 303.637 291.714 303.597C291.644 303.855 291.222 304.218 291.11 304.34C290.502 304.428 290.715 304.428 290.399 304.396C290.461 304.171 290.845 303.927 290.962 303.827Z"/></svg>
